# 3ds Max Wavefront OBJ Exporter v0.97b - (c)2007 guruware
# File Created: 14.12.2022 05:32:36

mtllib aletaI.mtl

#
# object Shark_Mesh
#

v  71.0416 -25.5245 -29.4135
v  70.4812 -23.2922 -27.8285
v  69.6502 -22.7473 -32.0645
v  69.6689 -24.5944 -33.5362
v  68.5771 -26.1996 -27.5719
v  67.8452 -25.5622 -31.8364
v  68.9677 -26.1385 -20.8837
v  69.5877 -25.5393 -21.4878
v  69.9702 -24.9378 -21.4655
v  14.3050 7.0643 -1.7597
v  5.1611 11.1329 -3.5532
v  4.6576 7.8139 -21.8771
v  13.6049 4.0116 -17.3557
v  11.8394 5.0121 14.8628
v  1.5561 8.8872 17.3405
v  7.6136 -1.4947 21.3640
v  -3.9524 1.7331 25.6769
v  3.9398 -8.1056 16.2686
v  -9.0424 -5.5906 20.8408
v  2.9041 -11.0282 2.1260
v  -10.2686 -9.3409 6.3713
v  4.9815 -8.8912 -13.1615
v  -7.4625 -7.2506 -10.5394
v  9.5340 -2.6658 -21.1969
v  -1.0157 0.1271 -22.7170
v  47.5630 -8.6892 -11.0291
v  35.5947 -3.3113 -5.6357
v  34.7386 -5.6526 -17.7950
v  46.8332 -10.7239 -21.2359
v  58.3478 -14.1245 -17.4119
v  57.9762 -15.2575 -26.1244
v  56.7817 -14.9424 -8.4714
v  45.8236 -9.8105 -0.1888
v  33.9149 -4.4855 6.9571
v  43.9135 -14.4396 -24.2243
v  31.7687 -9.9379 -22.2344
v  28.2039 -14.3790 -17.1483
v  40.4912 -17.2989 -20.5916
v  55.4326 -17.9327 -29.0593
v  52.4698 -20.4944 -25.2876
v  38.8874 -18.3816 -9.7779
v  26.5810 -15.7782 -4.6161
v  27.4233 -13.8144 7.5455
v  39.6944 -16.8133 0.6316
v  51.0883 -21.2984 -16.2979
v  51.6920 -20.1614 -7.6783
v  42.5888 -13.3327 4.3229
v  30.4147 -9.1726 11.8440
v  54.0475 -17.4951 -4.7340
v  24.4680 2.1712 -2.2994
v  23.7696 -0.3604 -16.0929
v  22.5896 -0.5673 10.1614
v  20.4578 -5.9250 -19.5209
v  16.6259 -11.2486 -14.6172
v  14.9335 -13.4346 -1.1291
v  15.8446 -10.9506 12.4668
v  18.9115 -5.1377 16.8239
v  65.6390 -19.1496 -23.5988
v  65.8941 -19.7484 -30.4369
v  64.6047 -19.7987 -16.6676
v  64.3845 -21.8316 -32.8759
v  62.3950 -23.8111 -29.9480
v  61.5265 -24.4063 -22.9646
v  61.6602 -23.5458 -16.0491
v  63.1194 -21.6404 -13.8062
# 65 vertices

vn 0.7658 -0.6419 -0.0381
vn 0.7264 0.6803 0.0981
vn 0.5923 0.7674 -0.2456
vn 0.2863 -0.3177 -0.9039
vn -0.1118 -0.9932 -0.0328
vn -0.1964 -0.9451 -0.2610
vn -0.1231 -0.9856 0.1157
vn 0.7168 -0.4793 0.5064
vn 0.7701 0.5659 0.2946
vn 0.3430 0.9393 -0.0046
vn 0.4911 0.8708 0.0222
vn 0.6331 0.5782 -0.5147
vn 0.3931 0.7992 -0.4548
vn 0.4121 0.8205 0.3962
vn 0.5850 0.7059 0.3993
vn 0.3035 -0.1160 0.9457
vn 0.5282 -0.2679 0.8058
vn -0.0323 -0.9146 0.4030
vn 0.2551 -0.8989 0.3562
vn -0.1218 -0.9924 0.0183
vn 0.1366 -0.9892 0.0531
vn -0.1729 -0.9235 -0.3424
vn 0.0631 -0.9659 -0.2513
vn 0.0402 -0.3796 -0.9243
vn 0.0613 -0.6882 -0.7230
vn 0.3428 0.9392 -0.0172
vn 0.3388 0.9405 -0.0261
vn 0.2414 0.8960 -0.3727
vn 0.1663 0.9041 -0.3937
vn 0.4232 0.9059 0.0176
vn 0.2048 0.9251 -0.3198
vn 0.5997 0.7003 0.3871
vn 0.5112 0.7682 0.3854
vn 0.4113 0.8299 0.3770
vn -0.2116 0.1509 -0.9656
vn -0.1591 0.0677 -0.9849
vn -0.2578 -0.9028 -0.3443
vn -0.2769 -0.9055 -0.3215
vn -0.2927 0.2206 -0.9304
vn -0.3333 -0.8838 -0.3283
vn -0.1691 -0.9855 0.0126
vn -0.1557 -0.9877 0.0142
vn -0.0310 -0.9412 0.3366
vn -0.0238 -0.9525 0.3036
vn -0.2016 -0.9794 0.0062
vn -0.0358 -0.9581 0.2843
vn 0.4255 -0.3621 0.8294
vn 0.3596 -0.2532 0.8981
vn 0.4672 -0.4462 0.7633
vn 0.3612 0.9322 0.0244
vn 0.2989 0.8538 -0.4262
vn 0.4076 0.8192 0.4034
vn -0.0672 -0.0986 -0.9929
vn -0.2265 -0.8917 -0.3920
vn -0.1547 -0.9880 0.0045
vn -0.0479 -0.9226 0.3827
vn 0.3426 -0.0436 0.9385
vn 0.5432 0.8375 0.0590
vn 0.3285 0.9032 -0.2763
vn 0.6853 0.6452 0.3378
vn -0.2306 0.1192 -0.9657
vn -0.3488 -0.8840 -0.3111
vn -0.2131 -0.9770 0.0038
vn -0.0767 -0.9606 0.2672
vn 0.5467 -0.4077 0.7314
vn 0.0000 -0.0000 0.0000
# 66 vertex normals

vt 0.7120 0.1296 0.0000
vt 0.7137 0.1288 0.0000
vt 0.7220 0.1353 0.0000
vt 0.7193 0.1357 0.0000
vt 0.7103 0.1305 0.0000
vt 0.7166 0.1361 0.0000
vt 0.7040 0.1248 0.0000
vt 0.7046 0.1236 0.0000
vt 0.7053 0.1223 0.0000
vt 0.6800 0.2440 0.0000
vt 0.6857 0.2576 0.0000
vt 0.6447 0.2743 0.0000
vt 0.6516 0.2513 0.0000
vt 0.7083 0.2367 0.0000
vt 0.7267 0.2408 0.0000
vt 0.6037 0.1832 0.0000
vt 0.5880 0.1761 0.0000
vt 0.6007 0.1651 0.0000
vt 0.6074 0.1709 0.0000
vt 0.5999 0.1954 0.0000
vt 0.5752 0.1871 0.0000
vt 0.6112 0.2182 0.0000
vt 0.5853 0.2183 0.0000
vt 0.6226 0.2409 0.0000
vt 0.5954 0.2494 0.0000
vt 0.6371 0.2461 0.0000
vt 0.6200 0.2619 0.0000
vt 0.7044 0.1904 0.0000
vt 0.6925 0.2105 0.0000
vt 0.6772 0.2045 0.0000
vt 0.6925 0.1822 0.0000
vt 0.7164 0.1703 0.0000
vt 0.7078 0.1598 0.0000
vt 0.7249 0.1807 0.0000
vt 0.7163 0.1986 0.0000
vt 0.7077 0.2166 0.0000
vt 0.6850 0.1820 0.0000
vt 0.6687 0.2035 0.0000
vt 0.6601 0.2026 0.0000
vt 0.6774 0.1818 0.0000
vt 0.7012 0.1605 0.0000
vt 0.6947 0.1611 0.0000
vt 0.6647 0.1714 0.0000
vt 0.6468 0.1891 0.0000
vt 0.6335 0.1756 0.0000
vt 0.6521 0.1609 0.0000
vt 0.6827 0.1537 0.0000
vt 0.6707 0.1463 0.0000
vt 0.6516 0.1526 0.0000
vt 0.6324 0.1657 0.0000
vt 0.6313 0.1558 0.0000
vt 0.6511 0.1444 0.0000
vt 0.6708 0.1396 0.0000
vt 0.6709 0.1329 0.0000
vt 0.6862 0.2273 0.0000
vt 0.6644 0.2279 0.0000
vt 0.7080 0.2266 0.0000
vt 0.6529 0.2248 0.0000
vt 0.6414 0.2218 0.0000
vt 0.6290 0.2036 0.0000
vt 0.6167 0.1855 0.0000
vt 0.6180 0.1744 0.0000
vt 0.6194 0.1634 0.0000
vt 0.7225 0.1557 0.0000
vt 0.7149 0.1476 0.0000
vt 0.7287 0.1410 0.0000
vt 0.7353 0.1468 0.0000
vt 0.7301 0.1637 0.0000
vt 0.7103 0.1481 0.0000
vt 0.7056 0.1486 0.0000
vt 0.6965 0.1421 0.0000
vt 0.6873 0.1355 0.0000
vt 0.6877 0.1316 0.0000
vt 0.6881 0.1276 0.0000
# 74 texture coords

o Shark_Mesh
g Shark_Mesh
usemtl Material__25
s 1
f 3/3/3 2/2/2 1/1/1 
f 1/1/1 4/4/4 3/3/3 
f 4/4/4 1/1/1 5/5/5 
f 5/5/5 6/6/6 4/4/4 
f 1/1/1 8/8/8 7/7/7 
f 7/7/7 5/5/5 1/1/1 
f 2/2/2 9/9/9 8/8/8 
f 8/8/8 1/1/1 2/2/2 
f 12/12/12 11/11/11 10/10/10 
f 10/10/10 13/13/13 12/12/12 
f 11/11/11 15/15/15 14/14/14 
f 14/14/14 10/10/10 11/11/11 
f 15/18/15 17/17/17 16/16/16 
f 16/16/16 14/19/14 15/18/15 
f 17/17/17 19/21/19 18/20/18 
f 18/20/18 16/16/16 17/17/17 
f 19/21/19 21/23/21 20/22/20 
f 20/22/20 18/20/18 19/21/19 
f 21/23/21 23/25/23 22/24/22 
f 22/24/22 20/22/20 21/23/21 
f 23/25/23 25/27/25 24/26/24 
f 24/26/24 22/24/22 23/25/23 
f 25/27/25 12/12/12 13/13/13 
f 13/13/13 24/26/24 25/27/25 
f 28/30/28 27/29/27 26/28/26 
f 26/28/26 29/31/29 28/30/28 
f 29/31/29 26/28/26 30/32/30 
f 30/32/30 31/33/31 29/31/29 
f 26/28/26 33/35/33 32/34/32 
f 32/34/32 30/32/30 26/28/26 
f 27/29/27 34/36/34 33/35/33 
f 33/35/33 26/28/26 27/29/27 
f 37/39/37 36/38/36 35/37/35 
f 35/37/35 38/40/38 37/39/37 
f 38/40/38 35/37/35 39/41/39 
f 39/41/39 40/42/40 38/40/38 
f 35/37/35 29/31/29 31/33/31 
f 31/33/31 39/41/39 35/37/35 
f 36/38/36 28/30/28 29/31/29 
f 29/31/29 35/37/35 36/38/36 
f 43/45/43 42/44/42 41/43/41 
f 41/43/41 44/46/44 43/45/43 
f 44/46/44 41/43/41 45/47/45 
f 45/47/45 46/48/46 44/46/44 
f 41/43/41 38/40/38 40/42/40 
f 40/42/40 45/47/45 41/43/41 
f 42/44/42 37/39/37 38/40/38 
f 38/40/38 41/43/41 42/44/42 
f 34/51/34 48/50/48 47/49/47 
f 47/49/47 33/52/33 34/51/34 
f 33/52/33 47/49/47 49/53/49 
f 49/53/49 32/54/32 33/52/33 
f 47/49/47 44/46/44 46/48/46 
f 46/48/46 49/53/49 47/49/47 
f 48/50/48 43/45/43 44/46/44 
f 44/46/44 47/49/47 48/50/48 
f 13/13/13 10/10/10 50/55/50 
f 50/55/50 51/56/51 13/13/13 
f 51/56/51 50/55/50 27/29/27 
f 27/29/27 28/30/28 51/56/51 
f 50/55/50 52/57/52 34/36/34 
f 34/36/34 27/29/27 50/55/50 
f 10/10/10 14/14/14 52/57/52 
f 52/57/52 50/55/50 10/10/10 
f 22/24/22 24/26/24 53/58/53 
f 53/58/53 54/59/54 22/24/22 
f 54/59/54 53/58/53 36/38/36 
f 36/38/36 37/39/37 54/59/54 
f 53/58/53 51/56/51 28/30/28 
f 28/30/28 36/38/36 53/58/53 
f 24/26/24 13/13/13 51/56/51 
f 51/56/51 53/58/53 24/26/24 
f 18/20/18 20/22/20 55/60/55 
f 55/60/55 56/61/56 18/20/18 
f 56/61/56 55/60/55 42/44/42 
f 42/44/42 43/45/43 56/61/56 
f 55/60/55 54/59/54 37/39/37 
f 37/39/37 42/44/42 55/60/55 
f 20/22/20 22/24/22 54/59/54 
f 54/59/54 55/60/55 20/22/20 
f 14/19/14 16/16/16 57/62/57 
f 57/62/57 52/63/52 14/19/14 
f 52/63/52 57/62/57 48/50/48 
f 48/50/48 34/51/34 52/63/52 
f 57/62/57 56/61/56 43/45/43 
f 43/45/43 48/50/48 57/62/57 
f 16/16/16 18/20/18 56/61/56 
f 56/61/56 57/62/57 16/16/16 
f 31/33/31 30/32/30 58/64/58 
f 58/64/58 59/65/59 31/33/31 
f 59/65/59 58/64/58 2/66/2 
f 2/66/2 3/3/3 59/65/59 
f 58/64/58 60/68/60 9/67/9 
f 9/67/9 2/66/2 58/64/58 
f 30/32/30 32/34/32 60/68/60 
f 60/68/60 58/64/58 30/32/30 
f 40/42/40 39/41/39 61/69/61 
f 61/69/61 62/70/62 40/42/40 
f 62/70/62 61/69/61 4/4/4 
f 4/4/4 6/6/6 62/70/62 
f 61/69/61 59/65/59 3/3/3 
f 3/3/3 4/4/4 61/69/61 
f 39/41/39 31/33/31 59/65/59 
f 59/65/59 61/69/61 39/41/39 
f 46/48/46 45/47/45 63/71/63 
f 63/71/63 64/72/64 46/48/46 
f 64/72/64 63/71/63 5/5/5 
f 5/5/5 7/7/7 64/72/64 
f 63/71/63 62/70/62 6/6/6 
f 6/6/6 5/5/5 63/71/63 
f 45/47/45 40/42/40 62/70/62 
f 62/70/62 63/71/63 45/47/45 
f 32/54/32 49/53/49 65/73/65 
f 65/73/65 60/74/60 32/54/32 
f 60/74/60 65/73/65 8/8/8 
f 8/8/8 9/9/9 60/74/60 
f 65/73/65 64/72/64 7/7/7 
f 7/7/7 8/8/8 65/73/65 
f 49/53/49 46/48/46 64/72/64 
f 64/72/64 65/73/65 49/53/49 
s 2
f 19/21/66 17/17/66 15/15/66 
f 23/25/66 21/23/66 19/21/66 
f 23/25/66 19/21/66 15/15/66 
f 12/12/66 25/27/66 23/25/66 
f 12/12/66 23/25/66 15/15/66 
f 12/12/66 15/15/66 11/11/66 
# 126 faces

