# 3ds Max Wavefront OBJ Exporter v0.97b - (c)2007 guruware
# File Created: 14.12.2022 05:26:39

mtllib bocaS.mtl

#
# object Shark_Mesh
#

v  8.0710 -6.9102 18.5674
v  10.7131 -14.9185 -2.1779
v  20.7144 -6.0686 -3.9764
v  18.3159 -1.2006 16.0082
v  -0.4969 -9.5639 19.9845
v  -0.4997 -17.7944 -1.5492
v  31.4463 18.0276 10.8815
v  25.8496 7.3383 12.3173
v  29.7951 4.6159 -6.0761
v  36.2800 16.2842 -9.2675
v  24.0160 9.3514 26.7641
v  18.0841 4.2114 32.0973
v  26.7543 13.2768 24.7894
v  24.7694 11.7762 32.7526
v  21.7861 10.8740 37.8894
v  16.4961 8.0865 44.3168
v  7.8459 16.1186 51.0280
v  6.8060 17.2699 56.2957
v  13.4207 14.9232 51.0761
v  15.6890 17.0994 47.1630
v  9.6809 15.8663 46.1817
v  17.1390 18.6287 42.6705
v  -0.5058 14.5246 47.1841
v  -0.5058 15.5764 53.0902
v  -0.5065 19.0196 58.7471
v  6.4248 11.8427 57.6014
v  -0.5100 12.5766 59.1825
v  -0.5040 4.8888 53.2921
v  8.2305 5.1047 49.6535
v  14.3647 12.1254 51.3349
v  27.2572 14.5731 28.2600
v  24.1712 13.1619 36.5399
v  29.9440 21.5382 21.2336
v  27.5575 20.7554 29.1874
v  25.7934 14.9870 34.0989
v  23.0526 15.0696 39.5974
v  19.8929 13.3589 44.4960
v  19.0128 16.1401 45.1317
v  21.4929 16.8229 41.1078
v  24.0403 17.6012 36.1693
v  9.1731 -1.2284 35.9971
v  -0.4976 -4.0926 37.1002
v  9.4095 16.7609 47.6464
v  -0.5061 17.5424 54.5072
v  -0.5058 15.4924 48.3762
v  7.7496 17.9275 53.6943
v  -0.5061 18.9541 58.6651
v  -9.0578 -6.8878 18.5647
v  -11.7118 -14.9265 -2.1724
v  -19.3253 -1.2185 16.0109
v  -21.7742 -6.1399 -3.9694
v  -26.0067 7.4330 11.7843
v  -30.8302 4.5997 -6.0862
v  -32.6123 17.8759 10.9537
v  -37.3092 16.2672 -9.2906
v  -25.0172 9.3631 26.7555
v  -19.0846 4.2253 32.0915
v  -22.7941 10.8816 37.8890
v  -17.4846 8.1117 44.3054
v  -25.7724 11.8014 32.7463
v  -27.7559 13.2835 24.7820
v  -8.8574 16.1204 51.0304
v  -16.7076 17.1043 47.1704
v  -14.3945 14.8986 51.0878
v  -7.8160 17.2614 56.2992
v  -10.6924 15.8757 46.1829
v  -18.1512 18.6417 42.6740
v  -7.4476 11.8391 57.6140
v  -9.2388 5.1074 49.6531
v  -15.3769 12.1281 51.3396
v  -28.1692 14.6517 28.2565
v  -25.1887 13.1673 36.5442
v  -26.6444 15.0238 34.0404
v  -24.0888 15.0669 39.6149
v  -28.4631 20.8007 29.2558
v  -31.3758 21.4009 21.3278
v  -20.8935 13.3769 44.4933
v  -19.9904 16.1235 45.1157
v  -22.4610 16.8547 41.1027
v  -25.0557 17.6088 36.1959
v  -10.1786 -1.2280 35.9963
v  -10.4213 16.7672 47.6480
v  -17.8566 19.7252 44.8439
v  -8.7614 17.9284 53.6966
# 84 vertices

vn 0.3648 -0.8841 0.2921
vn 0.4077 -0.8820 0.2362
vn 0.6363 -0.7436 0.2054
vn 0.5710 -0.7849 0.2407
vn -0.0010 -0.9556 0.2947
vn 0.0003 -0.9713 0.2377
vn 0.8802 -0.4098 0.2392
vn 0.7687 -0.5988 0.2248
vn 0.7585 -0.6081 0.2342
vn 0.9112 -0.3546 0.2095
vn 0.7102 -0.6733 0.2058
vn 0.5795 -0.7719 0.2615
vn 0.7647 -0.6366 0.1000
vn 0.6430 -0.7510 0.1500
vn 0.6326 -0.7128 0.3029
vn 0.5491 -0.7427 0.3833
vn -0.1245 0.9797 -0.1574
vn 0.4297 0.7380 0.5204
vn 0.5884 0.4490 0.6724
vn 0.2647 0.8500 0.4555
vn -0.1613 0.9837 0.0800
vn 0.4179 0.5239 0.7422
vn 0.0005 0.9999 -0.0156
vn 0.0001 0.9473 -0.3203
vn -0.0003 0.9192 0.3938
vn 0.3751 -0.4521 0.8093
vn 0.0004 -0.4056 0.9140
vn -0.0001 -0.8359 0.5489
vn 0.3461 -0.8093 0.4747
vn 0.6241 -0.4034 0.6691
vn 0.8896 -0.4241 0.1694
vn 0.8340 -0.3869 0.3934
vn 0.9169 -0.3067 0.2553
vn 0.8970 -0.3715 0.2396
vn 0.8969 0.0251 0.4414
vn 0.8227 -0.0614 0.5651
vn 0.7674 -0.3427 0.5419
vn 0.6925 0.3201 0.6465
vn 0.6683 0.5564 0.4937
vn 0.6808 -0.5258 0.5099
vn 0.3796 -0.8776 0.2929
vn 0.0000 -0.9356 0.3532
vn 0.2311 -0.9294 0.2876
vn 0.0000 -0.9597 0.2809
vn -0.0002 -0.9413 0.3375
vn 0.0848 -0.9963 0.0128
vn 0.0000 -0.9949 0.1008
vn -0.3639 -0.8844 0.2923
vn -0.4047 -0.8832 0.2370
vn -0.5959 -0.7661 0.2408
vn -0.6355 -0.7442 0.2056
vn -0.7626 -0.6062 0.2258
vn -0.7585 -0.5988 0.2570
vn -0.8582 -0.4626 0.2224
vn -0.9120 -0.3555 0.2046
vn -0.7010 -0.6914 0.1749
vn -0.5804 -0.7707 0.2629
vn -0.6316 -0.7136 0.3030
vn -0.5489 -0.7433 0.3825
vn -0.6406 -0.7534 0.1482
vn -0.7727 -0.6239 0.1171
vn 0.1241 0.9800 -0.1558
vn -0.2673 0.8468 0.4598
vn -0.5908 0.4463 0.6721
vn -0.4310 0.7378 0.5195
vn 0.1617 0.9835 0.0807
vn -0.4166 0.5250 0.7422
vn -0.3749 -0.4527 0.8090
vn -0.3474 -0.8091 0.4740
vn -0.6250 -0.4048 0.6675
vn -0.8784 -0.4391 0.1885
vn -0.8355 -0.3894 0.3877
vn -0.8989 0.0348 0.4368
vn -0.8335 0.0246 0.5520
vn -0.8912 -0.3682 0.2650
vn -0.9128 -0.3051 0.2714
vn -0.7685 -0.3381 0.5433
vn -0.6872 0.3309 0.6468
vn -0.6921 0.5118 0.5090
vn -0.6733 -0.5484 0.4958
vn -0.3799 -0.8777 0.2921
vn -0.2311 -0.9298 0.2867
vn -0.1949 -0.9760 0.0971
vn -0.0848 -0.9963 0.0123
# 84 vertex normals

vt 0.4812 0.0947 0.0000
vt 0.4778 0.1371 0.0000
vt 0.4558 0.1367 0.0000
vt 0.4626 0.0947 0.0000
vt 0.4997 0.0947 0.0000
vt 0.4997 0.1375 0.0000
vt 0.4250 0.0902 0.0000
vt 0.4438 0.0925 0.0000
vt 0.4355 0.1307 0.0000
vt 0.4152 0.1247 0.0000
vt 0.4511 0.0711 0.0000
vt 0.4655 0.0689 0.0000
vt 0.4367 0.0732 0.0000
vt 0.4484 0.0562 0.0000
vt 0.4584 0.0497 0.0000
vt 0.4684 0.0431 0.0000
vt 0.4826 0.0178 0.0000
vt 0.4870 0.0222 0.0000
vt 0.4743 0.0265 0.0000
vt 0.4654 0.0262 0.0000
vt 0.4782 0.0135 0.0000
vt 0.4566 0.0260 0.0000
vt 0.4997 0.0010 0.0000
vt 0.4997 0.0094 0.0000
vt 0.4997 0.0179 0.0000
vt 0.4855 0.0311 0.0000
vt 0.4997 0.0274 0.0000
vt 0.4997 0.0369 0.0000
vt 0.4841 0.0400 0.0000
vt 0.4713 0.0348 0.0000
vt 0.4395 0.0609 0.0000
vt 0.4503 0.0490 0.0000
vt 0.4287 0.0727 0.0000
vt 0.4324 0.0552 0.0000
vt 0.4424 0.0485 0.0000
vt 0.4523 0.0418 0.0000
vt 0.4608 0.0419 0.0000
vt 0.4633 0.0341 0.0000
vt 0.4539 0.0374 0.0000
vt 0.4445 0.0406 0.0000
vt 0.4826 0.0674 0.0000
vt 0.4997 0.0658 0.0000
vt 0.0613 0.1675 0.0000
vt 0.0684 0.1640 0.0000
vt 0.0870 0.1766 0.0000
vt 0.0403 0.1614 0.0000
vt 0.0451 0.1564 0.0000
vt 0.0541 0.1709 0.0000
vt 0.0498 0.1515 0.0000
vt 0.0350 0.1669 0.0000
vt 0.5183 0.0947 0.0000
vt 0.5217 0.1371 0.0000
vt 0.5369 0.0947 0.0000
vt 0.5437 0.1368 0.0000
vt 0.5557 0.0924 0.0000
vt 0.5640 0.1307 0.0000
vt 0.5745 0.0902 0.0000
vt 0.5843 0.1247 0.0000
vt 0.5484 0.0711 0.0000
vt 0.5340 0.0689 0.0000
vt 0.5411 0.0497 0.0000
vt 0.5311 0.0431 0.0000
vt 0.5512 0.0563 0.0000
vt 0.5628 0.0732 0.0000
vt 0.5169 0.0178 0.0000
vt 0.5340 0.0262 0.0000
vt 0.5252 0.0265 0.0000
vt 0.5125 0.0222 0.0000
vt 0.5213 0.0135 0.0000
vt 0.5429 0.0260 0.0000
vt 0.5139 0.0311 0.0000
vt 0.5154 0.0400 0.0000
vt 0.5281 0.0348 0.0000
vt 0.5600 0.0608 0.0000
vt 0.5492 0.0490 0.0000
vt 0.5571 0.0484 0.0000
vt 0.5472 0.0418 0.0000
vt 0.5670 0.0549 0.0000
vt 0.5708 0.0726 0.0000
vt 0.5387 0.0419 0.0000
vt 0.5362 0.0341 0.0000
vt 0.5456 0.0373 0.0000
vt 0.5550 0.0405 0.0000
vt 0.5169 0.0674 0.0000
vt 0.9390 0.1683 0.0000
vt 0.9227 0.1793 0.0000
vt 0.9132 0.1773 0.0000
vt 0.9318 0.1648 0.0000
vt 0.9552 0.1573 0.0000
vt 0.9505 0.1523 0.0000
vt 0.9600 0.1623 0.0000
vt 0.8939 0.1833 0.0000
vt 0.9461 0.1718 0.0000
vt 0.9653 0.1678 0.0000
# 94 texture coords

o Shark_Mesh
g Shark_Mesh
usemtl Material__25
s 1
f 1/1/1 2/2/2 3/3/3 
f 3/3/3 4/4/4 1/1/1 
f 5/5/5 6/6/6 2/2/2 
f 2/2/2 1/1/1 5/5/5 
f 7/7/7 8/8/8 9/9/9 
f 9/9/9 10/10/10 7/7/7 
f 8/8/8 4/4/4 3/3/3 
f 3/3/3 9/9/9 8/8/8 
f 11/11/11 12/12/12 4/4/4 
f 4/4/4 8/8/8 11/11/11 
f 13/13/13 11/11/11 8/8/8 
f 8/8/8 7/7/7 13/13/13 
f 14/14/14 15/15/15 11/11/11 
f 11/11/11 13/13/13 14/14/14 
f 15/15/15 16/16/16 12/12/12 
f 12/12/12 11/11/11 15/15/15 
f 17/17/17 18/18/18 19/19/19 
f 19/19/19 20/20/20 17/17/17 
f 21/21/21 17/17/17 20/20/20 
f 20/20/20 22/22/22 21/21/21 
f 23/23/23 24/24/24 17/17/17 
f 17/17/17 21/21/21 23/23/23 
f 24/24/24 25/25/25 18/18/18 
f 18/18/18 17/17/17 24/24/24 
f 26/26/26 27/27/27 28/28/28 
f 28/28/28 29/29/29 26/26/26 
f 30/30/30 26/26/26 29/29/29 
f 29/29/29 16/16/16 30/30/30 
f 19/19/19 18/18/18 26/26/26 
f 26/26/26 30/30/30 19/19/19 
f 18/18/18 25/25/25 27/27/27 
f 27/27/27 26/26/26 18/18/18 
f 31/31/31 32/32/32 14/14/14 
f 14/14/14 13/13/13 31/31/31 
f 33/33/33 31/31/31 13/13/13 
f 13/13/13 7/7/7 33/33/33 
f 34/34/34 35/35/35 31/31/31 
f 31/31/31 33/33/33 34/34/34 
f 35/35/35 36/36/36 32/32/32 
f 32/32/32 31/31/31 35/35/35 
f 37/37/37 30/30/30 16/16/16 
f 16/16/16 15/15/15 37/37/37 
f 32/32/32 37/37/37 15/15/15 
f 15/15/15 14/14/14 32/32/32 
f 36/36/36 38/38/38 37/37/37 
f 37/37/37 32/32/32 36/36/36 
f 38/38/38 19/19/19 30/30/30 
f 30/30/30 37/37/37 38/38/38 
f 39/39/39 38/38/38 36/36/36 
f 36/36/36 35/35/35 39/39/39 
f 40/40/40 39/39/39 35/35/35 
f 35/35/35 34/34/34 40/40/40 
f 22/22/22 20/20/20 39/39/39 
f 39/39/39 40/40/40 22/22/22 
f 20/20/20 19/19/19 38/38/38 
f 38/38/38 39/39/39 20/20/20 
f 41/41/41 42/42/42 5/5/5 
f 5/5/5 1/1/1 41/41/41 
f 12/12/12 41/41/41 1/1/1 
f 1/1/1 4/4/4 12/12/12 
f 16/16/16 29/29/29 41/41/41 
f 41/41/41 12/12/12 16/16/16 
f 29/29/29 28/28/28 42/42/42 
f 42/42/42 41/41/41 29/29/29 
f 43/43/43 21/44/21 22/45/22 
f 44/46/44 45/47/45 43/43/43 
f 43/43/43 46/48/46 44/46/44 
f 45/47/45 23/49/23 21/44/21 
f 21/44/21 43/43/43 45/47/45 
f 47/50/47 44/46/44 46/48/46 
f 5/5/5 48/51/48 49/52/49 
f 49/52/49 6/6/6 5/5/5 
f 48/51/48 50/53/50 51/54/51 
f 51/54/51 49/52/49 48/51/48 
f 52/55/52 53/56/53 51/54/51 
f 51/54/51 50/53/50 52/55/52 
f 54/57/54 55/58/55 53/56/53 
f 53/56/53 52/55/52 54/57/54 
f 56/59/56 52/55/52 50/53/50 
f 50/53/50 57/60/57 56/59/56 
f 58/61/58 56/59/56 57/60/57 
f 57/60/57 59/62/59 58/61/58 
f 60/63/60 61/64/61 56/59/56 
f 56/59/56 58/61/58 60/63/60 
f 61/64/61 54/57/54 52/55/52 
f 52/55/52 56/59/56 61/64/61 
f 62/65/62 63/66/63 64/67/64 
f 64/67/64 65/68/65 62/65/62 
f 24/24/24 62/65/62 65/68/65 
f 65/68/65 25/25/25 24/24/24 
f 23/23/23 66/69/66 62/65/62 
f 62/65/62 24/24/24 23/23/23 
f 66/69/66 67/70/67 63/66/63 
f 63/66/63 62/65/62 66/69/66 
f 68/71/68 69/72/69 28/28/28 
f 28/28/28 27/27/27 68/71/68 
f 65/68/65 68/71/68 27/27/27 
f 27/27/27 25/25/25 65/68/65 
f 64/67/64 70/73/70 68/71/68 
f 68/71/68 65/68/65 64/67/64 
f 70/73/70 59/62/59 69/72/69 
f 69/72/69 68/71/68 70/73/70 
f 71/74/71 61/64/61 60/63/60 
f 60/63/60 72/75/72 71/74/71 
f 73/76/73 71/74/71 72/75/72 
f 72/75/72 74/77/74 73/76/73 
f 75/78/75 76/79/76 71/74/71 
f 71/74/71 73/76/73 75/78/75 
f 76/79/76 54/57/54 61/64/61 
f 61/64/61 71/74/71 76/79/76 
f 77/80/77 58/61/58 59/62/59 
f 59/62/59 70/73/70 77/80/77 
f 78/81/78 77/80/77 70/73/70 
f 70/73/70 64/67/64 78/81/78 
f 74/77/74 72/75/72 77/80/77 
f 77/80/77 78/81/78 74/77/74 
f 72/75/72 60/63/60 58/61/58 
f 58/61/58 77/80/77 72/75/72 
f 79/82/79 73/76/73 74/77/74 
f 74/77/74 78/81/78 79/82/79 
f 63/66/63 79/82/79 78/81/78 
f 78/81/78 64/67/64 63/66/63 
f 67/70/67 80/83/80 79/82/79 
f 79/82/79 63/66/63 67/70/67 
f 80/83/80 75/78/75 73/76/73 
f 73/76/73 79/82/79 80/83/80 
f 81/84/81 48/51/48 5/5/5 
f 5/5/5 42/42/42 81/84/81 
f 69/72/69 81/84/81 42/42/42 
f 42/42/42 28/28/28 69/72/69 
f 59/62/59 57/60/57 81/84/81 
f 81/84/81 69/72/69 59/62/59 
f 57/60/57 50/53/50 48/51/48 
f 48/51/48 81/84/81 57/60/57 
f 82/85/82 83/86/83 67/87/67 
f 67/87/67 66/88/66 82/85/82 
f 45/89/45 82/85/82 66/88/66 
f 66/88/66 23/90/23 45/89/45 
f 82/85/82 45/89/45 44/91/44 
f 80/92/80 67/87/67 83/86/83 
f 84/93/84 44/91/44 47/94/47 
# 141 faces

