# 3ds Max Wavefront OBJ Exporter v0.97b - (c)2007 guruware
# File Created: 13.12.2022 16:43:19

mtllib grass2.mtl

#
# object free_grass
#

v  0.2051 3.8243 1.9011
v  -0.2051 3.8243 -1.9011
v  -0.1928 0.0000 -1.7878
v  0.1928 0.0000 1.7878
v  1.5439 3.4192 -1.1281
v  -1.5439 3.4192 1.1281
v  -1.5439 0.0000 1.1281
v  1.5439 0.0000 -1.1281
v  1.8097 4.3226 0.6176
v  -1.8097 4.3226 -0.6176
v  -1.8097 0.0000 -0.6176
v  1.8097 0.0000 0.6176
# 12 vertices

vn -0.9942 0.0000 0.1072
vn 0.5900 0.0000 0.8074
vn -0.3230 0.0000 0.9464
# 3 vertex normals

vt 1.0000 1.0000 0.0000
vt 0.0000 1.0000 0.0000
vt 0.0000 0.0000 0.0000
vt 1.0000 0.0000 0.0000
# 4 texture coords

o free_grass
g free_grass
usemtl Material__25
s off
f 1/1/1 2/2/1 3/3/1 
f 3/3/1 4/4/1 1/1/1 
f 5/1/2 6/2/2 7/3/2 
f 7/3/2 8/4/2 5/1/2 
f 9/1/3 10/2/3 11/3/3 
f 11/3/3 12/4/3 9/1/3 
# 6 faces

