# 3ds Max Wavefront OBJ Exporter v0.97b - (c)2007 guruware
# File Created: 13.12.2022 15:03:15

mtllib pecera.mtl

#
# object Box002
#

v  -383.0703 9.7426 969.9783
v  -383.0703 299.0608 969.9783
v  -383.0702 299.0607 695.8972
v  -383.0703 9.7426 695.8972
v  414.5481 9.7426 969.9784
v  414.5482 9.7426 695.8973
v  414.5482 299.0607 695.8973
v  414.5481 299.0607 969.9784
v  412.1893 287.0761 700.3556
v  214.5282 287.0761 700.3556
v  214.5282 287.0762 768.1011
v  412.1892 287.0762 768.1011
v  16.8671 287.0761 700.3555
v  16.8671 287.0762 768.1012
v  -180.7940 287.0761 700.3555
v  -180.7940 287.0762 768.1011
v  -378.4551 287.0761 700.3555
v  -378.4551 287.0761 768.1011
v  214.5282 287.0762 835.8468
v  412.1892 287.0762 835.8468
v  16.8671 287.0762 835.8468
v  -180.7940 287.0762 835.8468
v  -378.4551 287.0762 835.8468
v  214.5282 287.0762 903.5924
v  412.1893 287.0762 903.5924
v  16.8671 287.0762 903.5924
v  -180.7940 287.0762 903.5924
v  -378.4551 287.0762 903.5924
v  214.5282 287.0762 971.3380
v  412.1892 287.0762 971.3380
v  16.8671 287.0762 971.3380
v  -180.7940 287.0762 971.3380
v  -378.4551 287.0762 971.3380
v  -383.0703 9.7427 695.8972
v  -383.0702 299.0608 695.8972
# 35 vertices

vn -1.0000 0.0000 -0.0000
vn 1.0000 -0.0000 0.0000
vn -0.0000 -1.0000 0.0000
vn -0.0000 0.0000 1.0000
vn -0.0000 1.0000 -0.0000
vn 0.0000 -0.0000 -1.0000
# 6 vertex normals

vt 1.0000 0.0000 0.0000
vt 1.0000 1.0000 0.0000
vt 0.0000 1.0000 0.0000
vt 0.0000 0.0000 0.0000
vt 0.9985 0.9956 0.5002
vt 0.9985 0.0044 0.4998
vt 0.0015 0.0044 0.4998
vt 0.0015 0.9956 0.5001
vt 0.2500 0.0000 0.0000
vt 0.2500 0.2500 0.0000
vt 0.0000 0.2500 0.0000
vt 0.5000 0.0000 0.0000
vt 0.5000 0.2500 0.0000
vt 0.7500 0.0000 0.0000
vt 0.7500 0.2500 0.0000
vt 1.0000 0.2500 0.0000
vt 0.2500 0.5000 0.0000
vt 0.0000 0.5000 0.0000
vt 0.5000 0.5000 0.0000
vt 0.7500 0.5000 0.0000
vt 1.0000 0.5000 0.0000
vt 0.2500 0.7500 0.0000
vt 0.0000 0.7500 0.0000
vt 0.5000 0.7500 0.0000
vt 0.7500 0.7500 0.0000
vt 1.0000 0.7500 0.0000
vt 0.2500 1.0000 0.0000
vt 0.5000 1.0000 0.0000
vt 0.7500 1.0000 0.0000
# 29 texture coords

o Box002
g Box002
usemtl Material__35
s 2
f 1/1/1 2/2/1 3/3/1 
f 3/3/1 4/4/1 1/1/1 
s 4
f 5/4/2 6/1/2 7/2/2 
f 7/2/2 8/3/2 5/4/2 
usemtl Material__123
s 8
f 1/4/3 4/1/3 6/2/3 
f 6/2/3 5/3/3 1/4/3 
usemtl Material__35
s 64
f 2/5/4 1/6/4 5/7/4 
f 5/7/4 8/8/4 2/5/4 
usemtl Material__60
s 1
f 9/4/5 10/9/5 11/10/5 
f 11/10/5 12/11/5 9/4/5 
f 10/9/5 13/12/5 14/13/5 
f 14/13/5 11/10/5 10/9/5 
f 13/12/5 15/14/5 16/15/5 
f 16/15/5 14/13/5 13/12/5 
f 15/14/5 17/1/5 18/16/5 
f 18/16/5 16/15/5 15/14/5 
f 12/11/5 11/10/5 19/17/5 
f 19/17/5 20/18/5 12/11/5 
f 11/10/5 14/13/5 21/19/5 
f 21/19/5 19/17/5 11/10/5 
f 14/13/5 16/15/5 22/20/5 
f 22/20/5 21/19/5 14/13/5 
f 16/15/5 18/16/5 23/21/5 
f 23/21/5 22/20/5 16/15/5 
f 20/18/5 19/17/5 24/22/5 
f 24/22/5 25/23/5 20/18/5 
f 19/17/5 21/19/5 26/24/5 
f 26/24/5 24/22/5 19/17/5 
f 21/19/5 22/20/5 27/25/5 
f 27/25/5 26/24/5 21/19/5 
f 22/20/5 23/21/5 28/26/5 
f 28/26/5 27/25/5 22/20/5 
f 25/23/5 24/22/5 29/27/5 
f 29/27/5 30/3/5 25/23/5 
f 24/22/5 26/24/5 31/28/5 
f 31/28/5 29/27/5 24/22/5 
f 26/24/5 27/25/5 32/29/5 
f 32/29/5 31/28/5 26/24/5 
f 27/25/5 28/26/5 33/2/5 
f 33/2/5 32/29/5 27/25/5 
usemtl Material__47
s 16
f 34/4/6 35/1/6 7/2/6 
f 7/2/6 6/3/6 34/4/6 
# 42 faces

