# This file uses centimeters as units for non-parametric coordinates.

mtllib piernader.mtl
v -0.174600 0.299400 0.057800
v 0.124300 0.296400 0.107800
v 0.164700 0.495100 -0.232900
v 0.301000 0.274100 0.002800
v 0.418400 0.273200 -0.137400
v 0.231600 0.488300 -0.273300
v 0.261500 0.299000 -0.602700
v 0.133500 0.450600 -0.540400
v 0.141900 0.487600 -0.538600
v -0.418400 -0.083400 0.200400
v -0.127300 -0.161800 0.424100
v -0.049000 0.036300 0.311900
v 0.078200 -0.899900 0.275800
v 0.107000 -1.339400 -0.206800
v 0.385500 -0.719600 0.219700
v 0.117000 -1.337200 -0.258500
v 0.106500 -1.336800 -0.279200
v 0.363800 -0.699900 -0.314100
v 0.047700 -0.874000 -0.459500
v -0.196000 -0.124300 -0.726500
v 0.231000 0.159700 -0.601300
v -0.461700 -0.291400 0.163900
v -0.426400 -0.324900 0.137800
v -0.431000 -0.167300 0.224600
v -0.373900 -0.977500 0.098100
v 0.000200 -1.337000 -0.214100
v 0.032800 -1.337600 -0.203200
v -0.027000 -1.021300 -0.389500
v -0.367500 -0.403400 -0.534300
v -0.291400 -0.285800 -0.690300
v -0.421200 -0.364200 -0.497200
v -0.378800 -0.378000 -0.473200
v -0.434500 -0.255300 -0.521700
v -0.498000 -0.216200 -0.354000
v -0.472500 -0.403300 -0.360000
v -0.382500 -1.007000 -0.239800
v -0.438400 -0.975600 -0.109800
v -0.006700 -1.335600 -0.268100
v -0.014300 -1.336100 -0.238100
v -0.408500 -0.984800 -0.034600
v -0.486700 -0.373900 0.041400
v -0.515500 -0.309800 0.002700
v -0.426500 -0.145200 0.238400
v -0.052000 0.519600 -0.043300
v 0.210600 0.478800 -0.503000
v 0.149100 0.524500 -0.535000
v 0.230000 0.526500 -0.505000
v 0.091100 0.507100 -0.545600
v -0.363900 0.038900 0.176200
v 0.252000 -0.009400 0.420900
v 0.461400 0.268600 -0.306200
v 0.432100 -0.714500 0.090600
v 0.120800 -1.338700 -0.219800
v 0.032100 0.193400 -0.690500
v -0.261800 -0.256700 0.381800
v 0.085300 -1.338900 -0.197500
v -0.007600 -0.991500 0.215300
v 0.084300 -1.336500 -0.288400
v 0.057300 -1.336200 -0.293200
v -0.139500 -1.008800 -0.397600
v 0.016600 -1.335700 -0.285600
v 0.052200 0.498900 -0.215200
v 0.283600 0.489100 -0.427700
v 0.395400 0.285700 -0.470800
v 0.271800 0.483400 -0.460400
v 0.422900 -0.705100 -0.210900
v 0.123800 -1.337700 -0.240600
v -0.200600 0.199600 -0.549700
v -0.362100 -0.112900 -0.562500
v 0.063200 -1.338200 -0.199500
v -0.125300 -0.978900 0.184000
v -0.082900 0.474300 -0.544600
v -0.537400 -0.393400 -0.178900
v -0.163500 0.494500 -0.350800
v -0.165000 0.513100 -0.255500
v 0.178000 0.526400 -0.519200
v 0.245600 0.520600 -0.483100
v 0.286500 0.498600 -0.328200
v 0.293300 0.487000 -0.364300
v 0.081500 0.480300 -0.542400
v 0.021200 0.455000 -0.551500
v 0.029800 0.509400 -0.546800
vt -0.106200 0.892100
vt 0.112300 0.890900
vt 0.347400 0.972900
vt 0.207500 0.881700
vt 0.267400 0.881300
vt 0.345800 0.970000
vt 0.416600 0.892000
vt 0.440900 0.954500
vt 0.438200 0.969700
vt -0.139200 0.734200
vt -0.021800 0.701900
vt 0.001400 0.783600
vt 0.052100 0.397400
vt 0.355700 0.216100
vt 0.148200 0.471700
vt 0.379600 0.217000
vt 0.393600 0.217100
vt 0.332800 0.479900
vt 0.460100 0.408100
vt 0.533300 0.717300
vt 0.423300 0.834500
vt 0.842100 0.648400
vt 0.840700 0.634600
vt 0.864500 0.699600
vt 0.837700 0.365400
vt 0.439600 0.217100
vt 0.402200 0.216800
vt 0.487200 0.347300
vt 0.593700 0.602200
vt 0.557100 0.650700
vt 0.612400 0.618300
vt 0.607600 0.612700
vt 0.610600 0.663300
vt 0.660500 0.679400
vt 0.654500 0.602200
vt 0.678200 0.353200
vt 0.740800 0.366100
vt 0.462200 0.217600
vt 0.462100 0.217400
vt 0.775300 0.362300
vt 0.798800 0.614300
vt -0.217300 0.640800
vt -0.131200 0.708700
vt 0.002300 0.982900
vt 0.413900 0.966100
vt 0.435700 0.985000
vt 0.409200 0.985800
vt 0.454000 0.977800
vt -0.133400 0.784600
vt 0.081900 0.764700
vt 0.317000 0.879400
vt 0.190700 0.473900
vt 0.357300 0.216300
vt 0.478900 0.848400
vt 0.936700 0.662700
vt 0.978200 0.701900
vt 0.860800 0.734200
vt 0.360700 0.216300
vt 0.022200 0.359600
vt -0.063300 0.662700
vt 0.408400 0.217300
vt 0.425200 0.217400
vt 0.541300 0.352400
vt 0.448900 0.217600
vt 0.394200 0.974400
vt 0.380100 0.970400
vt 0.366800 0.886500
vt 0.390200 0.968000
vt 0.292200 0.477700
vt 0.367600 0.216800
vt 0.546900 0.851000
vt 0.588000 0.722000
vt 0.376000 0.216600
vt -0.039300 0.364800
vt 0.960700 0.364800
vt 0.510000 0.964300
vt 0.719100 0.606300
vt 0.560500 0.972600
vt 0.868800 0.708700
vt 0.782700 0.640800
vt 0.590200 0.980300
vt -0.409800 0.980300
vt 0.425400 0.985700
vt 0.401200 0.983400
vt 0.352100 0.974300
vt 0.361500 0.969500
vt 0.456600 0.966700
vt 0.476100 0.956300
vt 0.473200 0.978800
vt -0.159300 0.634600
vn -0.112204 0.589920 0.799628
vn 0.218004 0.603712 0.766815
vn 0.270421 0.756359 0.595646
vn 0.503802 0.640503 0.579603
vn 0.835409 0.411905 0.363904
vn 0.455776 0.691963 0.559870
vn 0.497003 0.210601 -0.841805
vn -0.116595 0.161494 -0.979962
vn 0.215795 0.105898 -0.970679
vn -0.397007 0.387906 0.831814
vn -0.164702 0.133902 0.977212
vn -0.228396 0.591491 0.773288
vn 0.141203 -0.421810 0.895621
vn 0.464987 -0.608784 0.642783
vn 0.721491 -0.253397 0.644392
vn 0.856906 -0.326602 -0.398803
vn 0.612899 -0.259600 -0.746299
vn 0.716803 -0.197901 -0.668602
vn 0.238612 -0.280415 -0.929748
vn -0.200507 0.099404 -0.974636
vn 0.531099 -0.126600 -0.837799
vn -0.534711 -0.346307 0.770815
vn -0.499798 -0.459198 0.734397
vn -0.633900 0.004800 0.773400
vn -0.652492 -0.421595 0.629692
vn -0.414788 -0.745378 0.521884
vn -0.165407 -0.704629 0.690028
vn -0.053401 -0.288708 -0.955927
vn -0.691665 -0.357782 -0.627369
vn -0.423689 -0.144696 -0.894176
vn -0.918271 -0.060598 -0.391288
vn -0.262391 0.794272 -0.547981
vn -0.816397 -0.010400 -0.577398
vn -0.918900 0.227900 -0.322000
vn -0.262391 0.794272 -0.547981
vn -0.918271 -0.060598 -0.391288
vn -0.903632 -0.165806 -0.394914
vn -0.691665 -0.357782 -0.627369
vn -0.751300 -0.463100 -0.470200
vn -0.855981 -0.475189 0.203695
vn -0.628603 -0.571303 -0.527703
vn -0.685602 -0.726202 0.050800
vn -0.841797 -0.475498 0.255499
vn -0.414788 -0.745378 0.521884
vn -0.652492 -0.421595 0.629692
vn -0.901732 -0.187507 0.389514
vn -0.499798 -0.459198 0.734397
vn -0.534711 -0.346307 0.770815
vn -0.896928 0.435314 0.077602
vn -0.901226 0.433212 -0.010900
vn -0.837159 0.419579 0.350883
vn 0.519195 0.158699 -0.839792
vn 0.324294 0.032899 -0.945384
vn 0.348403 0.796106 -0.494804
vn 0.073097 -0.080597 -0.994063
vn 0.324294 0.032899 -0.945384
vn 0.215795 0.105898 -0.970679
vn -0.324905 0.410707 0.851914
vn 0.218004 0.603712 0.766815
vn -0.112204 0.589920 0.799628
vn 0.435811 0.346609 0.830621
vn 0.835409 0.411905 0.363904
vn 0.503802 0.640503 0.579603
vn 0.965932 0.251308 -0.061802
vn 0.835409 0.411905 0.363904
vn 0.962223 -0.204005 0.180304
vn 0.721491 -0.253397 0.644392
vn 0.464987 -0.608784 0.642783
vn 0.792540 -0.513126 0.329517
vn -0.046301 0.220804 -0.974219
vn -0.116595 0.161494 -0.979962
vn 0.497003 0.210601 -0.841805
vn -0.607495 0.155299 0.778994
vn -0.512170 0.319981 0.797053
vn -0.512170 0.319981 0.797053
vn 0.120103 -0.686215 0.717415
vn 0.464987 -0.608784 0.642783
vn -0.089702 -0.549414 0.830721
vn 0.141203 -0.421810 0.895621
vn -0.164702 0.133902 0.977212
vn -0.139498 -0.201097 0.969588
vn 0.291206 -0.159803 -0.943219
vn 0.049200 -0.240500 -0.969401
vn -0.247999 -0.308298 -0.918395
vn -0.247999 -0.308298 -0.918395
vn 0.049200 -0.240500 -0.969401
vn -0.330308 -0.400010 -0.854921
vn -0.112204 0.589920 0.799628
vn 0.270421 0.756359 0.595646
vn 0.137799 0.695897 0.704797
vn 0.270421 0.756359 0.595646
vn 0.218004 0.603712 0.766815
vn 0.503802 0.640503 0.579603
vn 0.503802 0.640503 0.579603
vn 0.455776 0.691963 0.559870
vn 0.270421 0.756359 0.595646
vn 0.832502 0.484501 -0.268701
vn 0.823652 0.178611 -0.538234
vn 0.678521 0.284809 -0.677121
vn 0.215795 0.105898 -0.970679
vn 0.324294 0.032899 -0.945384
vn 0.519195 0.158699 -0.839792
vn 0.519195 0.158699 -0.839792
vn 0.823652 0.178611 -0.538234
vn 0.497003 0.210601 -0.841805
vn 0.497003 0.210601 -0.841805
vn 0.215795 0.105898 -0.970679
vn 0.519195 0.158699 -0.839792
vn -0.228396 0.591491 0.773288
vn 0.218004 0.603712 0.766815
vn -0.324905 0.410707 0.851914
vn -0.397007 0.387906 0.831814
vn -0.228396 0.591491 0.773288
vn -0.324905 0.410707 0.851914
vn 0.721491 -0.253397 0.644392
vn 0.835409 0.411905 0.363904
vn 0.435811 0.346609 0.830621
vn 0.435811 0.346609 0.830621
vn -0.164702 0.133902 0.977212
vn 0.141203 -0.421810 0.895621
vn 0.141203 -0.421810 0.895621
vn 0.721491 -0.253397 0.644392
vn 0.435811 0.346609 0.830621
vn 0.716803 -0.197901 -0.668602
vn 0.823652 0.178611 -0.538234
vn 0.944327 -0.206906 -0.255807
vn 0.944327 -0.206906 -0.255807
vn 0.910390 -0.387996 -0.143698
vn 0.856906 -0.326602 -0.398803
vn 0.856906 -0.326602 -0.398803
vn 0.716803 -0.197901 -0.668602
vn 0.944327 -0.206906 -0.255807
vn 0.531099 -0.126600 -0.837799
vn 0.823652 0.178611 -0.538234
vn 0.716803 -0.197901 -0.668602
vn 0.716803 -0.197901 -0.668602
vn 0.612899 -0.259600 -0.746299
vn 0.238612 -0.280415 -0.929748
vn 0.238612 -0.280415 -0.929748
vn 0.531099 -0.126600 -0.837799
vn 0.716803 -0.197901 -0.668602
vn -0.446078 0.315984 -0.837358
vn -0.116595 0.161494 -0.979962
vn -0.046301 0.220804 -0.974219
vn -0.046301 0.220804 -0.974219
vn -0.200507 0.099404 -0.974636
vn -0.650185 0.231394 -0.723683
vn -0.650185 0.231394 -0.723683
vn -0.446078 0.315984 -0.837358
vn -0.046301 0.220804 -0.974219
vn -0.165407 -0.704629 0.690028
vn -0.094395 -0.696359 0.711459
vn -0.268803 -0.472906 0.839110
vn -0.326010 -0.071902 0.942628
vn -0.499798 -0.459198 0.734397
vn -0.652492 -0.421595 0.629692
vn -0.652492 -0.421595 0.629692
vn -0.165407 -0.704629 0.690028
vn -0.268803 -0.472906 0.839110
vn -0.423689 -0.144696 -0.894176
vn -0.200507 0.099404 -0.974636
vn 0.238612 -0.280415 -0.929748
vn 0.238612 -0.280415 -0.929748
vn 0.612899 -0.259600 -0.746299
vn -0.053401 -0.288708 -0.955927
vn -0.053401 -0.288708 -0.955927
vn -0.423689 -0.144696 -0.894176
vn 0.238612 -0.280415 -0.929748
vn -0.816397 -0.010400 -0.577398
vn -0.200507 0.099404 -0.974636
vn -0.423689 -0.144696 -0.894176
vn -0.423689 -0.144696 -0.894176
vn -0.691665 -0.357782 -0.627369
vn -0.918271 -0.060598 -0.391288
vn -0.918271 -0.060598 -0.391288
vn -0.816397 -0.010400 -0.577398
vn -0.423689 -0.144696 -0.894176
vn -0.827079 0.317992 -0.463488
vn -0.262391 0.794272 -0.547981
vn -0.918900 0.227900 -0.322000
vn -0.918900 0.227900 -0.322000
vn -0.970687 -0.052699 -0.234497
vn -0.869749 0.353820 -0.344019
vn -0.869749 0.353820 -0.344019
vn -0.827079 0.317992 -0.463488
vn -0.918900 0.227900 -0.322000
vn -0.918271 -0.060598 -0.391288
vn -0.691665 -0.357782 -0.627369
vn -0.903632 -0.165806 -0.394914
vn -0.903632 -0.165806 -0.394914
vn -0.970687 -0.052699 -0.234497
vn -0.918900 0.227900 -0.322000
vn -0.918900 0.227900 -0.322000
vn -0.918271 -0.060598 -0.391288
vn -0.903632 -0.165806 -0.394914
vn -0.751300 -0.463100 -0.470200
vn -0.628603 -0.571303 -0.527703
vn -0.855981 -0.475189 0.203695
vn -0.922777 -0.176196 -0.342692
vn -0.970687 -0.052699 -0.234497
vn -0.903632 -0.165806 -0.394914
vn -0.903632 -0.165806 -0.394914
vn -0.751300 -0.463100 -0.470200
vn -0.922777 -0.176196 -0.342692
vn -0.685602 -0.726202 0.050800
vn -0.414788 -0.745378 0.521884
vn -0.841797 -0.475498 0.255499
vn -0.841797 -0.475498 0.255499
vn -0.990942 0.035902 0.129405
vn -0.855981 -0.475189 0.203695
vn -0.855981 -0.475189 0.203695
vn -0.685602 -0.726202 0.050800
vn -0.841797 -0.475498 0.255499
vn -0.652492 -0.421595 0.629692
vn -0.499798 -0.459198 0.734397
vn -0.901732 -0.187507 0.389514
vn -0.901732 -0.187507 0.389514
vn -0.990942 0.035902 0.129405
vn -0.841797 -0.475498 0.255499
vn -0.841797 -0.475498 0.255499
vn -0.652492 -0.421595 0.629692
vn -0.901732 -0.187507 0.389514
vn -0.534711 -0.346307 0.770815
vn -0.949121 0.060701 0.309007
vn -0.949121 0.060701 0.309007
vn -0.940711 -0.238603 0.241103
vn -0.990942 0.035902 0.129405
vn -0.901732 -0.187507 0.389514
vn -0.901732 -0.187507 0.389514
vn -0.534711 -0.346307 0.770815
vn -0.924597 -0.184299 0.333399
vn -0.941223 0.326708 -0.085802
vn -0.990942 0.035902 0.129405
vn -0.942338 0.328813 -0.062302
vn -0.896928 0.435314 0.077602
vn -0.837159 0.419579 0.350883
vn -0.810915 0.410208 0.417308
vn -0.941057 0.326385 -0.088796
vn -0.990942 0.035902 0.129405
vn -0.941223 0.326708 -0.085802
vn 0.348403 0.796106 -0.494804
vn 0.324294 0.032899 -0.945384
vn 0.050698 0.978362 -0.200592
vn -0.102801 0.925313 0.365005
vn 0.348403 0.796106 -0.494804
vn 0.050698 0.978362 -0.200592
vn 0.455776 0.691963 0.559870
vn 0.835409 0.411905 0.363904
vn 0.759958 0.586768 0.279585
vn 0.858302 0.512301 -0.029400
vn 0.835409 0.411905 0.363904
vn 0.965932 0.251308 -0.061802
vn 0.965932 0.251308 -0.061802
vn 0.823652 0.178611 -0.538234
vn 0.832502 0.484501 -0.268701
vn 0.832502 0.484501 -0.268701
vn 0.858302 0.512301 -0.029400
vn 0.965932 0.251308 -0.061802
vn 0.759958 0.586768 0.279585
vn 0.835409 0.411905 0.363904
vn 0.858302 0.512301 -0.029400
vn 0.678521 0.284809 -0.677121
vn 0.823652 0.178611 -0.538234
vn 0.519195 0.158699 -0.839792
vn 0.519195 0.158699 -0.839792
vn 0.348403 0.796106 -0.494804
vn 0.678521 0.284809 -0.677121
vn 0.070198 -0.010700 -0.997476
vn -0.116595 0.161494 -0.979962
vn 0.095496 -0.043998 -0.994457
vn 0.215795 0.105898 -0.970679
vn -0.116595 0.161494 -0.979962
vn 0.070198 -0.010700 -0.997476
vn 0.070198 -0.010700 -0.997476
vn 0.014900 -0.106797 -0.994169
vn 0.073097 -0.080597 -0.994063
vn 0.073097 -0.080597 -0.994063
vn 0.215795 0.105898 -0.970679
vn 0.070198 -0.010700 -0.997476
vn 0.503802 0.640503 0.579603
vn 0.218004 0.603712 0.766815
vn -0.228396 0.591491 0.773288
vn -0.228396 0.591491 0.773288
vn -0.164702 0.133902 0.977212
vn 0.435811 0.346609 0.830621
vn 0.435811 0.346609 0.830621
vn 0.503802 0.640503 0.579603
vn -0.228396 0.591491 0.773288
vn 0.962223 -0.204005 0.180304
vn 0.910390 -0.387996 -0.143698
vn 0.944327 -0.206906 -0.255807
vn 0.944327 -0.206906 -0.255807
vn 0.823652 0.178611 -0.538234
vn 0.965932 0.251308 -0.061802
vn 0.965932 0.251308 -0.061802
vn 0.962223 -0.204005 0.180304
vn 0.944327 -0.206906 -0.255807
vn 0.792540 -0.513126 0.329517
vn 0.910390 -0.387996 -0.143698
vn 0.962223 -0.204005 0.180304
vn 0.962223 -0.204005 0.180304
vn 0.835409 0.411905 0.363904
vn 0.721491 -0.253397 0.644392
vn 0.721491 -0.253397 0.644392
vn 0.792540 -0.513126 0.329517
vn 0.962223 -0.204005 0.180304
vn 0.497003 0.210601 -0.841805
vn 0.823652 0.178611 -0.538234
vn 0.531099 -0.126600 -0.837799
vn 0.531099 -0.126600 -0.837799
vn -0.200507 0.099404 -0.974636
vn -0.046301 0.220804 -0.974219
vn -0.046301 0.220804 -0.974219
vn 0.497003 0.210601 -0.841805
vn 0.531099 -0.126600 -0.837799
vn 0.095496 -0.043998 -0.994457
vn -0.116595 0.161494 -0.979962
vn -0.446078 0.315984 -0.837358
vn -0.633900 0.004800 0.773400
vn -0.499798 -0.459198 0.734397
vn -0.607495 0.155299 0.778994
vn -0.607495 0.155299 0.778994
vn -0.562792 0.267296 0.782188
vn -0.633900 0.004800 0.773400
vn -0.089702 -0.549414 0.830721
vn -0.262491 -0.045398 0.963866
vn -0.268803 -0.472906 0.839110
vn -0.268803 -0.472906 0.839110
vn -0.094395 -0.696359 0.711459
vn 0.120103 -0.686215 0.717415
vn 0.120103 -0.686215 0.717415
vn -0.089702 -0.549414 0.830721
vn -0.268803 -0.472906 0.839110
vn -0.727811 -0.333705 0.599109
vn -0.727811 -0.333705 0.599109
vn -0.089702 -0.549414 0.830721
vn -0.089702 -0.549414 0.830721
vn 0.464987 -0.608784 0.642783
vn 0.141203 -0.421810 0.895621
vn 0.141203 -0.421810 0.895621
vn -0.308398 -0.269798 0.912195
vn -0.089702 -0.549414 0.830721
vn -0.247999 -0.308298 -0.918395
vn -0.691665 -0.357782 -0.627369
vn -0.053401 -0.288708 -0.955927
vn -0.053401 -0.288708 -0.955927
vn 0.612899 -0.259600 -0.746299
vn 0.291206 -0.159803 -0.943219
vn 0.291206 -0.159803 -0.943219
vn -0.247999 -0.308298 -0.918395
vn -0.053401 -0.288708 -0.955927
vn -0.330308 -0.400010 -0.854921
vn -0.628603 -0.571303 -0.527703
vn -0.751300 -0.463100 -0.470200
vn -0.751300 -0.463100 -0.470200
vn -0.691665 -0.357782 -0.627369
vn -0.247999 -0.308298 -0.918395
vn -0.247999 -0.308298 -0.918395
vn -0.330308 -0.400010 -0.854921
vn -0.751300 -0.463100 -0.470200
vn -0.650185 0.231394 -0.723683
vn -0.200507 0.099404 -0.974636
vn -0.816397 -0.010400 -0.577398
s off
usemtl lambert3SG
f 1/1/1 2/2/2 3/3/3
f 4/4/4 5/5/5 6/6/6
f 7/7/7 8/8/8 9/9/9
f 10/10/10 11/11/11 12/12/12
f 13/13/13 14/14/14 15/15/15
f 16/16/16 17/17/17 18/18/18
f 19/19/19 20/20/20 21/21/21
f 22/22/22 23/23/23 24/24/24
f 25/25/25 26/26/26 27/27/27
f 28/28/28 29/29/29 30/30/30
f 31/31/31 32/32/32 33/33/33
f 34/34/34 32/32/35 31/31/36
f 35/35/37 29/29/38 36/36/39
f 37/37/40 38/38/41 39/39/42
f 40/40/43 26/26/44 25/25/45
f 41/41/46 23/23/47 22/22/48
f 42/42/49 43/43/50 44/44/51
f 45/45/52 46/46/53 47/47/54
f 48/48/55 46/46/56 9/9/57
f 49/49/58 2/2/59 1/1/60
f 50/50/61 5/5/62 4/4/63
f 51/51/64 5/5/65 52/52/66
f 15/15/67 14/14/68 53/53/69
f 54/54/70 8/8/71 7/7/72
f 55/55/73 11/56/74 10/57/75
f 56/58/76 14/14/77 57/59/78
f 13/13/79 11/11/80 55/60/81
f 58/61/82 59/62/83 60/63/84
f 60/63/85 59/62/86 61/64/87
f 1/1/88 3/3/89 62/65/90
f 3/3/91 2/2/92 4/4/93
f 4/4/94 6/6/95 3/3/96
f 63/66/97 64/67/98 65/68/99
f 9/9/100 46/46/101 45/45/102
f 45/45/103 64/67/104 7/7/105
f 7/7/106 9/9/107 45/45/108
f 12/12/109 2/2/110 49/49/111
f 10/10/112 12/12/113 49/49/114
f 15/15/115 5/5/116 50/50/117
f 50/50/118 11/11/119 13/13/120
f 13/13/121 15/15/122 50/50/123
f 18/18/124 64/67/125 66/69/126
f 66/69/127 67/70/128 16/16/129
f 16/16/130 18/18/131 66/69/132
f 21/21/133 64/67/134 18/18/135
f 18/18/136 17/17/137 19/19/138
f 19/19/139 21/21/140 18/18/141
f 68/71/142 8/8/143 54/54/144
f 54/54/145 20/20/146 69/72/147
f 69/72/148 68/71/149 54/54/150
f 27/27/151 70/73/152 71/74/153
f 71/75/154 23/23/155 25/25/156
f 25/25/157 27/27/158 71/74/159
f 30/30/160 20/20/161 19/19/162
f 19/19/163 17/17/164 28/28/165
f 28/28/166 30/30/167 19/19/168
f 33/33/169 20/20/170 30/30/171
f 30/30/172 29/29/173 31/31/174
f 31/31/175 33/33/176 30/30/177
f 72/76/178 32/32/179 34/34/180
f 34/34/181 73/77/182 74/78/183
f 74/78/184 72/76/185 34/34/186
f 31/31/187 29/29/188 35/35/189
f 35/35/190 73/77/191 34/34/192
f 34/34/193 31/31/194 35/35/195
f 36/36/196 38/38/197 37/37/198
f 37/37/199 73/77/200 35/35/201
f 35/35/202 36/36/203 37/37/204
f 39/39/205 26/26/206 40/40/207
f 40/40/208 73/77/209 37/37/210
f 37/37/211 39/39/212 40/40/213
f 25/25/214 23/23/215 41/41/216
f 41/41/217 73/77/218 40/40/219
f 40/40/220 25/25/221 41/41/222
f 22/22/223 43/79/224 42/80/225
f 42/80/226 73/77/227 41/41/228
f 41/41/229 22/22/230 42/80/231
f 75/81/232 73/77/233 42/80/234
f 42/42/235 44/44/236 75/82/237
f 74/78/238 73/77/239 75/81/240
f 47/47/241 46/46/242 76/83/243
f 77/84/244 47/47/245 76/83/246
f 6/6/247 5/5/248 78/85/249
f 79/86/250 5/5/251 51/51/252
f 51/51/253 64/67/254 63/66/255
f 63/66/256 79/86/257 51/51/258
f 78/85/259 5/5/260 79/86/261
f 65/68/262 64/67/263 45/45/264
f 45/45/265 47/47/266 65/68/267
f 80/87/268 8/8/269 81/88/270
f 9/9/271 8/8/272 80/87/273
f 80/87/274 82/89/275 48/48/276
f 48/48/277 9/9/278 80/87/279
f 4/4/280 2/2/281 12/12/282
f 12/12/283 11/11/284 50/50/285
f 50/50/286 4/4/287 12/12/288
f 52/52/289 67/70/290 66/69/291
f 66/69/292 64/67/293 51/51/294
f 51/51/295 52/52/296 66/69/297
f 53/53/298 67/70/299 52/52/300
f 52/52/301 5/5/302 15/15/303
f 15/15/304 53/53/305 52/52/306
f 7/7/307 64/67/308 21/21/309
f 21/21/310 20/20/311 54/54/312
f 54/54/313 7/7/314 21/21/315
f 81/88/316 8/8/317 68/71/318
f 24/24/319 23/23/320 55/55/321
f 55/55/322 10/57/323 24/24/324
f 57/59/325 23/90/326 71/74/327
f 71/74/328 70/73/329 56/58/330
f 56/58/331 57/59/332 71/74/333
f 55/60/334 23/90/335 57/59/336
f 57/59/337 14/14/338 13/13/339
f 13/13/340 55/60/341 57/59/342
f 60/63/343 29/29/344 28/28/345
f 28/28/346 17/17/347 58/61/348
f 58/61/349 60/63/350 28/28/351
f 61/64/352 38/38/353 36/36/354
f 36/36/355 29/29/356 60/63/357
f 60/63/358 61/64/359 36/36/360
f 69/72/361 20/20/362 33/33/363
