# 3ds Max Wavefront OBJ Exporter v0.97b - (c)2007 guruware
# File Created: 15.12.2022 02:42:51

mtllib PataD.mtl

#
# object 3D_Object_1
#

v  -14.8753 -2.2688 2.4058
v  -13.4216 3.0649 1.9451
v  -9.2959 -4.0399 -9.1625
v  -8.4462 1.3962 -8.0057
v  -12.9814 6.4638 1.6585
v  -7.9650 4.8667 -7.6986
v  -6.3680 -2.1152 13.1756
v  -5.6002 2.7476 12.8480
v  -5.4466 6.2795 12.8071
v  -6.7365 -2.4019 1.5663
v  -4.1260 -2.8421 -3.3169
v  -3.9826 -1.9924 6.5213
v  -4.4740 -9.7421 1.0545
v  -2.6006 -10.4076 -2.3239
v  -2.0478 -9.8855 4.5045
v  -1.8942 -14.2262 0.6245
v  0.3273 -14.0931 -1.0954
v  0.0509 -13.8167 2.3751
v  4.8421 -4.2856 -11.1998
v  5.0263 -0.3339 -10.2682
v  1.7503 -2.8933 -3.6138
v  5.2720 3.3004 -9.6028
v  1.3408 -10.6635 -2.4877
v  2.4670 -2.0333 6.3780
v  1.8015 -10.1107 4.3305
v  7.3195 -2.2483 12.4283
v  6.7667 1.2529 12.3976
v  6.8179 4.4572 12.1212
v  3.2757 -10.4076 0.9316
v  2.2520 -13.8064 0.6654
v  4.3814 -2.4633 1.5766
v  11.3429 -3.1287 2.4775
v  10.8719 0.0858 2.2011
v  10.8924 3.0649 1.9451
v  0.3990 -14.9018 0.6040
# 35 vertices

vn -0.9301 0.2391 0.2788
vn -0.9800 0.1881 0.0651
vn -0.6823 0.2412 -0.6901
vn -0.5617 0.1934 -0.8045
vn -0.9078 -0.4189 -0.0189
vn -0.5152 -0.4822 -0.7086
vn -0.2505 0.0892 0.9640
vn -0.4203 0.1177 0.8997
vn -0.4996 -0.6057 0.6193
vn 0.0069 -0.9970 0.0766
vn 0.0300 -0.9869 0.1583
vn -0.4180 -0.9022 0.1060
vn -0.4310 -0.8970 -0.0979
vn 0.0035 -0.9998 -0.0186
vn -0.2900 -0.7711 0.5669
vn -0.3698 -0.7843 -0.4981
vn -0.9252 -0.3762 0.0503
vn -0.5123 -0.3969 -0.7616
vn -0.4246 -0.4637 0.7776
vn -0.6161 -0.7867 0.0392
vn 0.0750 -0.7103 -0.6999
vn 0.0496 -0.7116 0.7008
vn 0.2532 0.2080 -0.9448
vn 0.4755 0.1444 -0.8678
vn -0.0331 -0.9849 0.1697
vn 0.2062 -0.9785 -0.0089
vn 0.3400 -0.6662 -0.6637
vn 0.6596 -0.1329 -0.7397
vn 0.4236 -0.2735 -0.8636
vn -0.5282 -0.2155 -0.8213
vn 0.3113 -0.8842 0.3482
vn 0.4427 -0.3811 0.8117
vn -0.0568 -0.9983 0.0100
vn 0.6911 -0.2549 0.6763
vn 0.5807 0.0703 0.8111
vn 0.1727 -0.7212 0.6708
vn 0.9801 -0.1948 -0.0390
vn 0.7759 -0.6306 0.0185
vn 0.9902 -0.1348 -0.0366
vn 0.6161 -0.4787 -0.6255
vn 0.5813 -0.8125 0.0439
vn -0.1065 -0.9900 0.0924
vn -0.0740 -0.9856 0.1518
vn 0.3018 -0.9217 0.2438
vn -0.0264 -0.8886 0.4580
vn 0.4538 -0.5179 -0.7251
vn 0.9965 0.0742 -0.0374
vn 0.9940 -0.0005 0.1092
vn 0.9769 0.1152 -0.1799
vn 0.2894 -0.4886 0.8231
vn 0.1184 -0.9910 0.0624
vn 0.7366 0.1288 0.6640
vn 0.0000 -0.0000 -14258122601397646209843200.0000
# 53 vertex normals

vt 0.1276 -0.1308 0.0000
vt 0.1293 -0.1484 0.0000
vt 0.1344 -0.1284 0.0000
vt 0.1354 -0.1458 0.0000
vt 0.1298 -0.1596 0.0000
vt 0.1359 -0.1571 0.0000
vt 0.1379 -0.1284 0.0000
vt 0.1388 -0.1444 0.0000
vt 0.1390 -0.1560 0.0000
vt 0.9737 -0.3925 0.0000
vt 0.9186 -0.4562 0.0000
vt 0.8935 -0.3971 0.0000
vt 0.8678 -0.4239 0.0000
vt 0.8899 -0.3395 0.0000
vt 0.8582 -0.3700 0.0000
vt 0.0842 -0.7647 0.0000
vt 0.0797 -0.7647 0.0000
vt 0.0802 -0.7549 0.0000
vt 0.0770 -0.7543 0.0000
vt 0.0780 -0.7647 0.0000
vt 0.0754 -0.7542 0.0000
vt 0.0757 -0.7482 0.0000
vt 0.0719 -0.7487 0.0000
vt 0.0724 -0.7486 0.0000
vt 0.1495 -0.1284 0.0000
vt 0.1497 -0.1411 0.0000
vt 0.7960 -0.4674 0.0000
vt 0.8150 -0.4255 0.0000
vt 0.1500 -0.1528 0.0000
vt 0.0705 -0.7647 0.0000
vt 0.0704 -0.7540 0.0000
vt 0.0683 -0.7647 0.0000
vt 0.0687 -0.7539 0.0000
vt 0.7548 -0.3443 0.0000
vt 0.8028 -0.3708 0.0000
vt 0.1545 -0.1284 0.0000
vt 0.1538 -0.1399 0.0000
vt 0.1539 -0.1504 0.0000
vt 0.0669 -0.7539 0.0000
vt 0.0686 -0.7489 0.0000
vt 0.0650 -0.7647 0.0000
vt 0.7151 -0.3925 0.0000
vt 0.7838 -0.3971 0.0000
vt 0.1588 -0.1390 0.0000
vt 0.1588 -0.1488 0.0000
vt 0.1594 -0.1284 0.0000
vt 0.0718 -0.7472 0.0000
# 47 texture coords

o 3D_Object_1
g 3D_Object_1
usemtl mrkrabs
s 1
f 1/1/1 2/2/2 3/3/3 
f 4/4/4 3/3/3 2/2/2 
f 2/2/2 5/5/5 4/4/4 
f 6/6/6 4/4/4 5/5/5 
f 7/7/7 8/8/8 1/1/1 
f 2/2/2 1/1/1 8/8/8 
f 5/5/5 2/2/2 9/9/9 
f 2/2/2 8/8/8 9/9/9 
f 1/10/10 3/11/11 10/12/12 
f 3/11/11 11/13/13 10/12/12 
f 7/14/14 1/10/10 12/15/15 
f 1/10/10 10/12/12 12/15/15 
f 10/16/12 11/17/16 13/18/17 
f 11/17/16 14/19/18 13/18/17 
f 10/16/12 13/18/17 12/20/15 
f 13/18/17 15/21/19 12/20/15 
f 13/18/17 14/19/18 16/22/20 
f 16/22/20 14/19/18 17/23/21 
f 13/18/17 16/22/20 15/21/19 
f 15/21/19 16/22/20 18/24/22 
f 3/3/3 4/4/4 19/25/23 
f 20/26/24 19/25/23 4/4/4 
f 3/11/11 19/27/25 11/13/13 
f 19/27/25 21/28/26 11/13/13 
f 4/4/4 6/6/6 20/26/24 
f 22/29/27 20/26/24 6/6/6 
f 21/30/28 23/31/29 11/17/30 
f 23/31/29 14/19/18 11/17/30 
f 24/32/31 12/20/15 25/33/32 
f 12/20/15 15/21/19 25/33/32 
f 26/34/33 7/14/14 24/35/31 
f 7/14/14 12/15/15 24/35/31 
f 26/36/34 27/37/35 7/7/7 
f 7/7/7 27/37/35 8/8/8 
f 27/37/35 28/38/36 8/8/8 
f 8/8/8 28/38/36 9/9/9 
f 29/39/37 30/40/38 23/31/29 
f 23/31/29 30/40/38 17/23/21 
f 18/24/22 30/40/38 25/33/32 
f 25/33/32 30/40/38 29/39/37 
f 31/41/39 29/39/37 21/30/28 
f 29/39/37 23/31/29 21/30/40 
f 31/41/41 24/32/31 29/39/37 
f 24/32/31 25/33/32 29/39/37 
f 19/27/25 32/42/42 21/28/43 
f 32/42/42 31/43/44 21/28/43 
f 26/34/45 24/35/31 32/42/42 
f 32/42/42 24/35/31 31/43/44 
f 20/26/24 22/29/46 33/44/47 
f 34/45/48 33/44/47 22/29/46 
f 19/25/23 20/26/24 32/46/49 
f 33/44/47 32/46/49 20/26/24 
f 28/38/50 27/37/35 34/45/48 
f 27/37/35 33/44/47 34/45/48 
f 35/47/51 18/24/22 16/22/20 
f 16/22/20 17/23/21 35/47/51 
f 27/37/35 26/36/52 33/44/47 
f 26/36/52 32/46/49 33/44/47 
f 23/31/29 17/23/21 14/19/18 
f 15/21/19 18/24/22 25/33/32 
f 30/40/38 18/24/22 35/47/51 
f 17/23/21 30/40/38 35/47/51 
s 2
f 9/9/53 28/38/53 34/45/53 
f 34/45/53 22/29/53 6/6/53 
f 9/9/53 34/45/53 6/6/53 
f 5/5/53 9/9/53 6/6/53 
# 66 faces

